G04 #@! TF.GenerationSoftware,KiCad,Pcbnew,(5.0.0)*
G04 #@! TF.CreationDate,2018-09-02T17:29:03+02:00*
G04 #@! TF.ProjectId,MegaBiels_P,4D6567614269656C735F502E6B696361,rev?*
G04 #@! TF.SameCoordinates,Original*
G04 #@! TF.FileFunction,Soldermask,Top*
G04 #@! TF.FilePolarity,Negative*
%FSLAX46Y46*%
G04 Gerber Fmt 4.6, Leading zero omitted, Abs format (unit mm)*
G04 Created by KiCad (PCBNEW (5.0.0)) date 09/02/18 17:29:03*
%MOMM*%
%LPD*%
G01*
G04 APERTURE LIST*
%ADD10C,0.010000*%
%ADD11C,6.400000*%
G04 APERTURE END LIST*
D10*
G04 #@! TO.C,G\002A\002A\002A*
G36*
X235000000Y-144000000D02*
X85000000Y-144000000D01*
X85000000Y-114000000D01*
X235000000Y-114000000D01*
X235000000Y-144000000D01*
X235000000Y-144000000D01*
G37*
X235000000Y-144000000D02*
X85000000Y-144000000D01*
X85000000Y-114000000D01*
X235000000Y-114000000D01*
X235000000Y-144000000D01*
G36*
X235000000Y-114000000D02*
X85000000Y-114000000D01*
X85000000Y-84000000D01*
X235000000Y-84000000D01*
X235000000Y-114000000D01*
X235000000Y-114000000D01*
G37*
X235000000Y-114000000D02*
X85000000Y-114000000D01*
X85000000Y-84000000D01*
X235000000Y-84000000D01*
X235000000Y-114000000D01*
G36*
X235000000Y-84000000D02*
X85000000Y-84000000D01*
X85000000Y-54000000D01*
X235000000Y-54000000D01*
X235000000Y-84000000D01*
X235000000Y-84000000D01*
G37*
X235000000Y-84000000D02*
X85000000Y-84000000D01*
X85000000Y-54000000D01*
X235000000Y-54000000D01*
X235000000Y-84000000D01*
G04 #@! TD*
D11*
G04 #@! TO.C,REF\002A\002A*
X220000000Y-129000000D03*
G04 #@! TD*
G04 #@! TO.C,REF\002A\002A*
X100000000Y-129000000D03*
G04 #@! TD*
G04 #@! TO.C,REF\002A\002A*
X160000000Y-129000000D03*
G04 #@! TD*
G04 #@! TO.C,REF\002A\002A*
X220000000Y-99000000D03*
G04 #@! TD*
G04 #@! TO.C,REF\002A\002A*
X100000000Y-99000000D03*
G04 #@! TD*
G04 #@! TO.C,REF\002A\002A*
X160000000Y-99000000D03*
G04 #@! TD*
G04 #@! TO.C,REF\002A\002A*
X160000000Y-69000000D03*
G04 #@! TD*
G04 #@! TO.C,REF\002A\002A*
X220000000Y-69000000D03*
G04 #@! TD*
G04 #@! TO.C,REF\002A\002A*
X100000000Y-69000000D03*
G04 #@! TD*
M02*
